<svg width="20" height="20" viewBox="0 0 20 20" fill="none" xmlns="http://www.w3.org/2000/svg">
<path fill-rule="evenodd" clip-rule="evenodd" d="M9.02621 4.60614C9.74832 4.60614 10.4048 4.79522 11.0612 5.04732C11.6521 4.16497 12.6368 3.66077 13.7527 3.66077C15.5252 3.66077 16.9694 5.04732 16.9694 6.749C16.9694 7.31623 16.7725 7.88346 16.5099 8.32463C20.6456 10.6566 18.7419 16.5179 15.0657 16.5179H4.89048C2.85545 16.5179 1.21429 14.9423 1.21429 12.9885V12.9885C1.21429 11.2238 2.52721 9.77421 4.23402 9.52211C4.23402 9.39606 4.23402 9.27001 4.23402 9.14396C4.23402 6.62295 6.40035 4.60614 9.02621 4.60614Z" stroke="#264D59" stroke-width="1.5" stroke-linecap="round" stroke-linejoin="round"/>
</svg>
