<svg width="20" height="20" viewBox="0 0 20 20" fill="none" xmlns="http://www.w3.org/2000/svg">
<mask id="mask0" mask-type="alpha" maskUnits="userSpaceOnUse" x="0" y="0" width="20" height="20">
<path fill-rule="evenodd" clip-rule="evenodd" d="M20 0H0V20H20V15.5342C19.5434 15.6518 19.0647 15.7143 18.5714 15.7143C15.4157 15.7143 12.8571 13.1557 12.8571 10C12.8571 6.84429 15.4157 4.28571 18.5714 4.28571C19.0647 4.28571 19.5434 4.34823 20 4.46577V0Z" fill="#C4C4C4"/>
</mask>
<g mask="url(#mask0)">
<path fill-rule="evenodd" clip-rule="evenodd" d="M10 18.5714C5.26643 18.5714 1.42857 14.7336 1.42857 10C1.42857 5.26645 5.26643 1.42859 10 1.42859C14.7336 1.42859 18.5714 5.26645 18.5714 10C18.5714 14.7336 14.7336 18.5714 10 18.5714V18.5714Z" stroke="#264D59" stroke-width="1.42857" stroke-linecap="round" stroke-linejoin="round"/>
<path fill-rule="evenodd" clip-rule="evenodd" d="M10 15.7143C6.84429 15.7143 4.28572 13.1558 4.28572 10.0001C4.28572 6.84434 6.84429 4.28577 10 4.28577C13.1557 4.28577 15.7143 6.84434 15.7143 10.0001C15.7143 13.1558 13.1557 15.7143 10 15.7143V15.7143Z" stroke="#264D59" stroke-width="1.42857" stroke-linecap="round" stroke-linejoin="round"/>
</g>
<path d="M14.0607 7.66245H12.762L11.4836 8.4437V9.64094L12.62 8.96115H12.6504V12.8573H14.0607V7.66245Z" fill="#264D59"/>
<path d="M17.3899 12.9993C18.8028 13.0018 19.6804 11.9898 19.6829 10.27C19.6855 8.56038 18.8028 7.59143 17.3899 7.59143C15.9745 7.59143 15.102 8.55531 15.0969 10.27C15.0918 11.9822 15.9745 12.9968 17.3899 12.9993ZM17.3899 11.8528C16.9029 11.8528 16.5529 11.3632 16.5579 10.27C16.563 9.20212 16.9029 8.72779 17.3899 8.72779C17.8769 8.72779 18.2194 9.20212 18.2219 10.27C18.2244 11.3632 17.8769 11.8528 17.3899 11.8528Z" fill="#264D59"/>
</svg>
