<svg width="20" height="20" viewBox="0 0 20 20" fill="none" xmlns="http://www.w3.org/2000/svg">
<path d="M10.8819 8.8072L10.2268 8.44208C10.0617 8.73833 10.1159 9.10853 10.3591 9.34494L10.8819 8.8072ZM8.80393 10.8275L9.32674 10.2898C9.09385 10.0634 8.7417 10.0126 8.45434 10.164L8.80393 10.8275ZM11.753 13.6947L12.4484 13.9756C12.5626 13.693 12.4944 13.3694 12.2758 13.157L11.753 13.6947ZM13.831 11.6744L13.3082 12.2121C13.5175 12.4156 13.8259 12.4792 14.0986 12.375L13.831 11.6744ZM10.75 6.42859C10.75 7.15781 10.5608 7.84279 10.2268 8.44208L11.537 9.17232C11.9915 8.35689 12.25 7.42145 12.25 6.42859H10.75ZM6.35715 2.17859C8.80332 2.17859 10.75 4.10116 10.75 6.42859H12.25C12.25 3.23318 9.59163 0.678589 6.35715 0.678589V2.17859ZM1.96429 6.42859C1.96429 4.10116 3.91099 2.17859 6.35715 2.17859V0.678589C3.12267 0.678589 0.464294 3.23318 0.464294 6.42859H1.96429ZM6.35715 10.6786C3.91099 10.6786 1.96429 8.75602 1.96429 6.42859H0.464294C0.464294 9.624 3.12267 12.1786 6.35715 12.1786V10.6786ZM8.45434 10.164C7.83253 10.4916 7.11885 10.6786 6.35715 10.6786V12.1786C7.36691 12.1786 8.32009 11.9302 9.15352 11.4911L8.45434 10.164ZM12.2758 13.157L9.32674 10.2898L8.28112 11.3653L11.2302 14.2325L12.2758 13.157ZM12.25 14.9998C12.25 14.6374 12.3204 14.2925 12.4484 13.9756L11.0576 13.4138C10.859 13.9055 10.75 14.441 10.75 14.9998H12.25ZM15.1735 17.8213C13.5388 17.8213 12.25 16.5383 12.25 14.9998H10.75C10.75 17.4063 12.7505 19.3213 15.1735 19.3213V17.8213ZM18.0969 14.9998C18.0969 16.5383 16.8081 17.8213 15.1735 17.8213V19.3213C17.5964 19.3213 19.5969 17.4063 19.5969 14.9998H18.0969ZM15.1735 12.1784C16.8081 12.1784 18.0969 13.4614 18.0969 14.9998H19.5969C19.5969 12.5934 17.5964 10.6784 15.1735 10.6784V12.1784ZM14.0986 12.375C14.43 12.2485 14.7923 12.1784 15.1735 12.1784V10.6784C14.6071 10.6784 14.0637 10.7827 13.5635 10.9737L14.0986 12.375ZM10.3591 9.34494L13.3082 12.2121L14.3538 11.1366L11.4047 8.26945L10.3591 9.34494Z" fill="#264D59"/>
</svg>
