<svg width="20" height="20" viewBox="0 0 20 20" fill="none" xmlns="http://www.w3.org/2000/svg">
<path d="M16.8839 9.04778H17.604C17.7303 9.04541 17.8548 9.06829 17.9722 9.11509C18.0896 9.16189 18.1965 9.23166 18.2867 9.32033C18.3768 9.40901 18.4485 9.5148 18.4974 9.63153C18.5463 9.74826 18.5714 9.87359 18.5714 10.0002C18.5714 10.1268 18.5463 10.2521 18.4974 10.3688C18.4485 10.4856 18.3768 10.5914 18.2867 10.68C18.1965 10.7687 18.0896 10.8385 17.9722 10.8853C17.8548 10.9321 17.7293 10.955 17.603 10.9526H16.8832C15.1898 10.9526 14.3414 13.0044 15.539 14.2044L16.0485 14.7146C16.2147 14.8955 16.3046 15.1337 16.2996 15.3795C16.2945 15.6252 16.1948 15.8595 16.0213 16.0334C15.8479 16.2072 15.614 16.3071 15.3688 16.3122C15.1235 16.3172 14.8858 16.2271 14.7053 16.0606L14.196 15.5507C14.0228 15.3731 13.8159 15.2319 13.5875 15.1355C13.359 15.039 13.1137 14.9893 12.8658 14.9892C11.8884 14.9892 10.9512 15.7496 10.9512 16.8977V17.6189C10.9512 17.8715 10.851 18.1138 10.6727 18.2924C10.4944 18.4711 10.2526 18.5714 10.0005 18.5714C9.74839 18.5714 9.50659 18.4711 9.32831 18.2924C9.15003 18.1138 9.04988 17.8715 9.04988 17.6189V16.8977C9.04988 15.7492 8.1126 14.9892 7.13523 14.9892C6.8874 14.9892 6.64208 15.0388 6.41365 15.1351C6.18523 15.2315 5.97829 15.3725 5.805 15.55L5.29576 16.0606C5.11527 16.2271 4.87753 16.3172 4.63226 16.3122C4.38699 16.3071 4.15317 16.2072 3.9797 16.0334C3.80623 15.8595 3.70654 15.6252 3.70147 15.3795C3.6964 15.1337 3.78634 14.8955 3.9525 14.7146L4.4614 14.2044C5.65897 13.0044 4.81058 10.9526 3.11713 10.9526H2.39705C2.27074 10.955 2.14521 10.9321 2.02782 10.8853C1.91043 10.8385 1.80353 10.7687 1.71336 10.68C1.62319 10.5914 1.55156 10.4856 1.50267 10.3688C1.45377 10.2521 1.42859 10.1268 1.42859 10.0002C1.42859 9.87359 1.45377 9.74826 1.50267 9.63153C1.55156 9.5148 1.62319 9.40901 1.71336 9.32033C1.80353 9.23166 1.91043 9.16189 2.02782 9.11509C2.14521 9.06829 2.27074 9.04541 2.39705 9.04778H3.1178C4.81125 9.04778 5.65964 6.99633 4.46207 5.79633L3.9525 5.28573C3.7847 5.10519 3.69338 4.86644 3.69777 4.61977C3.70216 4.37311 3.80192 4.13777 3.97604 3.96334C4.15016 3.78892 4.38504 3.68901 4.63121 3.68467C4.87738 3.68033 5.11563 3.7719 5.29576 3.94008L5.805 4.45002C5.97828 4.62769 6.18524 4.76889 6.41373 4.86531C6.64222 4.96173 6.88763 5.01144 7.13556 5.01151C8.1126 5.01151 9.04988 4.25113 9.04988 3.10303V2.38116C9.04988 2.12852 9.15003 1.88623 9.32831 1.70759C9.50659 1.52895 9.74839 1.42859 10.0005 1.42859C10.2526 1.42859 10.4944 1.52895 10.6727 1.70759C10.851 1.88623 10.9512 2.12852 10.9512 2.38116V3.10303C10.9512 4.25147 11.8884 5.01151 12.8655 5.01151C13.1134 5.01132 13.3588 4.96153 13.5873 4.86505C13.8158 4.76857 14.0227 4.62736 14.196 4.44968L14.7053 3.94008C14.8854 3.7719 15.1237 3.68033 15.3698 3.68467C15.616 3.68901 15.8509 3.78892 16.025 3.96334C16.1991 4.13777 16.2989 4.37311 16.3033 4.61977C16.3077 4.86644 16.2163 5.10519 16.0485 5.28573L15.5396 5.79633C14.3421 6.99633 15.1905 9.04778 16.8839 9.04778Z" stroke="#264D59" stroke-width="1.5" stroke-linecap="round" stroke-linejoin="round"/>
<path fill-rule="evenodd" clip-rule="evenodd" d="M8.57145 9.99996C9.36043 9.99996 10 9.36037 10 8.57139C10 7.78242 9.36043 7.14282 8.57145 7.14282C7.78248 7.14282 7.14288 7.78242 7.14288 8.57139C7.14288 9.36037 7.78248 9.99996 8.57145 9.99996Z" stroke="#264D59" stroke-width="1.5" stroke-linecap="round" stroke-linejoin="round"/>
<path fill-rule="evenodd" clip-rule="evenodd" d="M12.1429 12.8572C12.5374 12.8572 12.8572 12.5374 12.8572 12.1429C12.8572 11.7484 12.5374 11.4286 12.1429 11.4286C11.7484 11.4286 11.4286 11.7484 11.4286 12.1429C11.4286 12.5374 11.7484 12.8572 12.1429 12.8572Z" stroke="#264D59" stroke-width="1.5" stroke-linecap="round" stroke-linejoin="round"/>
</svg>
