<svg width="20" height="20" viewBox="0 0 20 20" fill="none" xmlns="http://www.w3.org/2000/svg">
<g clip-path="url(#clip0)">
<path d="M7.02038 7.85616L7.36612 8.52172C7.61451 8.39268 7.77038 8.13607 7.77038 7.85616H7.02038ZM12.8979 7.85611H12.1479C12.1479 8.13602 12.3038 8.39264 12.5522 8.52167L12.8979 7.85611ZM7.77038 3.65341C7.77038 2.44458 8.75032 1.46463 9.95915 1.46463V-0.0353655C7.9219 -0.0353655 6.27038 1.61615 6.27038 3.65341H7.77038ZM7.77038 7.85616V3.65341H6.27038V7.85616H7.77038ZM6.67463 7.19061C4.4759 8.33281 2.9643 10.5958 2.9643 13.2146H4.4643C4.4643 11.193 5.63005 9.42357 7.36612 8.52172L6.67463 7.19061ZM2.9643 13.2146C2.9643 17.0018 6.11608 20.0361 9.9592 20.0361V18.5361C6.9044 18.5361 4.4643 16.1338 4.4643 13.2146H2.9643ZM9.9592 20.0361C13.8023 20.0361 16.9541 17.0018 16.9541 13.2146H15.4541C15.4541 16.1338 13.014 18.5361 9.9592 18.5361V20.0361ZM16.9541 13.2146C16.9541 10.5958 15.4424 8.33273 13.2437 7.19055L12.5522 8.52167C14.2883 9.42351 15.4541 11.193 15.4541 13.2146H16.9541ZM12.1479 3.65341V7.85611H13.6479V3.65341H12.1479ZM9.95915 1.46463C11.168 1.46463 12.1479 2.44458 12.1479 3.65341H13.6479C13.6479 1.61615 11.9964 -0.0353655 9.95915 -0.0353655V1.46463Z" fill="#264D59"/>
<path fill-rule="evenodd" clip-rule="evenodd" d="M9.95923 15.7145C11.3794 15.7145 12.5307 14.5952 12.5307 13.2145C12.5307 11.8338 11.3794 10.7145 9.95923 10.7145C8.53906 10.7145 7.3878 11.8338 7.3878 13.2145C7.3878 14.5952 8.53906 15.7145 9.95923 15.7145Z" stroke="#264D59" stroke-width="1.5" stroke-linecap="round" stroke-linejoin="round"/>
<path d="M9.95921 10.7144V6.42871" stroke="#264D59" stroke-width="1.5" stroke-linecap="round" stroke-linejoin="round"/>
</g>
<defs>
<clipPath id="clip0">
<rect width="20" height="20" fill="white"/>
</clipPath>
</defs>
</svg>
