<svg width="20" height="20" viewBox="0 0 20 20" fill="none" xmlns="http://www.w3.org/2000/svg">
<mask id="mask0" mask-type="alpha" maskUnits="userSpaceOnUse" x="0" y="0" width="20" height="20">
<mask id="path-1-inside-1" mask-type="luminance" fill="white">
<path fill-rule="evenodd" clip-rule="evenodd" d="M20 0H0V20H20V15.5342C17.5355 14.8998 15.7143 12.6624 15.7143 10C15.7143 7.33756 17.5355 5.10018 20 4.46577V0Z"/>
</mask>
<path fill-rule="evenodd" clip-rule="evenodd" d="M20 0H0V20H20V15.5342C17.5355 14.8998 15.7143 12.6624 15.7143 10C15.7143 7.33756 17.5355 5.10018 20 4.46577V0Z" fill="#C4C4C4"/>
<path d="M0 0V-1.42857H-1.42857V0H0ZM20 0H21.4286V-1.42857H20V0ZM0 20H-1.42857V21.4286H0V20ZM20 20V21.4286H21.4286V20H20ZM20 15.5342H21.4286V14.4268L20.3561 14.1508L20 15.5342ZM20 4.46577L20.3561 5.84924L21.4286 5.57317V4.46577H20ZM0 1.42857H20V-1.42857H0V1.42857ZM1.42857 20V0H-1.42857V20H1.42857ZM20 18.5714H0V21.4286H20V18.5714ZM18.5714 15.5342V20H21.4286V15.5342H18.5714ZM20.3561 14.1508C18.5074 13.6749 17.1429 11.9948 17.1429 10H14.2857C14.2857 13.3301 16.5636 16.1248 19.6439 16.9177L20.3561 14.1508ZM17.1429 10C17.1429 8.00521 18.5074 6.32514 20.3561 5.84924L19.6439 3.0823C16.5636 3.87522 14.2857 6.66991 14.2857 10H17.1429ZM18.5714 0V4.46577H21.4286V0H18.5714Z" fill="#C93221" mask="url(#path-1-inside-1)"/>
</mask>
<g mask="url(#mask0)">
<path fill-rule="evenodd" clip-rule="evenodd" d="M10 18.5714C5.26643 18.5714 1.42857 14.7336 1.42857 10C1.42857 5.26645 5.26643 1.42859 10 1.42859C14.7336 1.42859 18.5714 5.26645 18.5714 10C18.5714 14.7336 14.7336 18.5714 10 18.5714V18.5714Z" stroke="#264D59" stroke-width="1.42857" stroke-linecap="round" stroke-linejoin="round"/>
<path fill-rule="evenodd" clip-rule="evenodd" d="M9.99999 14.2857C7.63321 14.2857 5.71428 12.3667 5.71428 9.99995C5.71428 7.63316 7.63321 5.71423 9.99999 5.71423C12.3668 5.71423 14.2857 7.63316 14.2857 9.99995C14.2857 12.3667 12.3668 14.2857 9.99999 14.2857V14.2857Z" stroke="#264D59" stroke-width="1.42857" stroke-linecap="round" stroke-linejoin="round"/>
</g>
<path fill-rule="evenodd" clip-rule="evenodd" d="M19.1547 7.66235H17.369L15.2789 10.9497V12.0455H17.8053V12.8572H19.1547V12.0455H19.7533V10.9497H19.1547V7.66235ZM16.6689 10.9091V10.9497H17.8357V9.12339H17.7951L16.6689 10.9091Z" fill="#264D59"/>
</svg>
