<svg id="Layer_1" data-name="Layer 1" xmlns="http://www.w3.org/2000/svg" width="20" height="20" viewBox="0 0 20 20"><defs><style>.cls-1{fill:none;stroke:#264d59;stroke-linecap:round;stroke-linejoin:round;stroke-width:1.14px;fill-rule:evenodd;}</style></defs><path class="cls-1" d="M13.39,3A.91.91,0,0,1,13.93,3a1,1,0,0,1,.66.51.29.29,0,0,0,.34.16,1,1,0,0,1,.81.2.9.9,0,0,1,.31.76.3.3,0,0,0,.21.31.89.89,0,0,1,.61.57,1,1,0,0,1-.11.82.29.29,0,0,0,0,.37.92.92,0,0,1,.24.8,1,1,0,0,1-.28.5"/><path class="cls-1" d="M15.62,15.05a.89.89,0,0,1,0,.43.92.92,0,0,1-.5.66.28.28,0,0,0-.17.33.93.93,0,0,1-.19.8.91.91,0,0,1-.77.32.29.29,0,0,0-.31.2.94.94,0,0,1-.57.61,1,1,0,0,1-.83-.11.29.29,0,0,0-.37,0,.94.94,0,0,1-.8.24,1,1,0,0,1-.67-.51.25.25,0,0,0-.2-.17h0"/><path class="cls-1" d="M3.34,12.73a.92.92,0,0,1-.6-.22.91.91,0,0,1-.32-.77.3.3,0,0,0-.21-.3.93.93,0,0,1-.62-.57.87.87,0,0,1,.13-.82.27.27,0,0,0,0-.36.94.94,0,0,1-.24-.8A.91.91,0,0,1,2,8.23a.3.3,0,0,0,.17-.34.86.86,0,0,1,.18-.8.9.9,0,0,1,.78-.31.32.32,0,0,0,.31-.21.5.5,0,0,1,0-.13"/><path class="cls-1" d="M12.89,11.6l0,.08a1.21,1.21,0,0,1-.14,1.08.39.39,0,0,0,0,.5,1.16,1.16,0,0,1,.31,1.05,1.23,1.23,0,0,1-.67.87.36.36,0,0,0-.22.42A1.19,1.19,0,0,1,12,16.66a1.17,1.17,0,0,1-1,.42.38.38,0,0,0-.4.27,1.24,1.24,0,0,1-.76.8A1.19,1.19,0,0,1,8.73,18a.41.41,0,0,0-.5.05,1.23,1.23,0,0,1-1.06.31,1.26,1.26,0,0,1-.87-.67A.33.33,0,0,0,6,17.47a.29.29,0,0,0-.16,0,1.23,1.23,0,0,1-1.06-.26,1.16,1.16,0,0,1-.42-1,.41.41,0,0,0-.28-.4,1.19,1.19,0,0,1-.81-.76A1.14,1.14,0,0,1,3.46,14a.35.35,0,0,0,0-.48,1.22,1.22,0,0,1-.31-1.05,1.18,1.18,0,0,1,.67-.87A.38.38,0,0,0,4,11.14a1.16,1.16,0,0,1,.24-1.07L4.32,10"/><path class="cls-1" d="M14.72,7a1,1,0,0,1,1.19.51.31.31,0,0,0,.37.18,1,1,0,0,1,1.22,1,.31.31,0,0,0,.22.33,1,1,0,0,1,.66.62,1,1,0,0,1-.12.89.31.31,0,0,0,0,.4,1,1,0,0,1-.3,1.58.29.29,0,0,0-.17.35,1,1,0,0,1-.22.87,1,1,0,0,1-.83.34.31.31,0,0,0-.33.22,1,1,0,0,1-.62.66,1,1,0,0,1-.89-.12.33.33,0,0,0-.41,0,1,1,0,0,1-.87.26A1,1,0,0,1,13,14.7"/><path class="cls-1" d="M15.16,8.37a1.43,1.43,0,0,1-.78,1,.42.42,0,0,0-.25.5,1.43,1.43,0,0,1-.3,1.24,1.39,1.39,0,0,1-1.19.48.46.46,0,0,0-.47.32,1.41,1.41,0,0,1-.88.93A1.44,1.44,0,0,1,10,12.68a.47.47,0,0,0-.58.05,1.37,1.37,0,0,1-1.23.36,1.4,1.4,0,0,1-1-.77.43.43,0,0,0-.32-.27.5.5,0,0,0-.18,0,1.45,1.45,0,0,1-1.25-.29A1.38,1.38,0,0,1,5,10.59a.48.48,0,0,0-.33-.47,1.44,1.44,0,0,1-.95-.88A1.36,1.36,0,0,1,3.88,8a.4.4,0,0,0-.06-.55A1.46,1.46,0,0,1,3.46,6.2a1.4,1.4,0,0,1,.78-1,.46.46,0,0,0,.26-.52,1.36,1.36,0,0,1,.28-1.24A1.38,1.38,0,0,1,6,3a.47.47,0,0,0,.47-.32,1.41,1.41,0,0,1,.88-.93,1.43,1.43,0,0,1,1.27.17.43.43,0,0,0,.56-.06,1.42,1.42,0,0,1,2.25.42.45.45,0,0,0,.52.25,1.42,1.42,0,0,1,1.24.3A1.41,1.41,0,0,1,13.66,4a.46.46,0,0,0,.32.47,1.35,1.35,0,0,1,.93.88,1.41,1.41,0,0,1-.16,1.26.44.44,0,0,0,.05.57A1.36,1.36,0,0,1,15.16,8.37Z"/></svg>