<svg width="20" height="20" viewBox="0 0 20 20" fill="none" xmlns="http://www.w3.org/2000/svg">
<mask id="mask0" mask-type="alpha" maskUnits="userSpaceOnUse" x="0" y="0" width="20" height="20">
<mask id="path-1-inside-1" mask-type="luminance" fill="white">
<path fill-rule="evenodd" clip-rule="evenodd" d="M20 0H0V20H20V13.1943C19.2418 13.873 18.2405 14.2857 17.1429 14.2857C14.7761 14.2857 12.8571 12.3668 12.8571 10C12.8571 7.63321 14.7761 5.71429 17.1429 5.71429C18.2405 5.71429 19.2418 6.12699 20 6.80567V0Z"/>
</mask>
<path fill-rule="evenodd" clip-rule="evenodd" d="M20 0H0V20H20V13.1943C19.2418 13.873 18.2405 14.2857 17.1429 14.2857C14.7761 14.2857 12.8571 12.3668 12.8571 10C12.8571 7.63321 14.7761 5.71429 17.1429 5.71429C18.2405 5.71429 19.2418 6.12699 20 6.80567V0Z" fill="#C4C4C4"/>
<path d="M0 0V-1.42857H-1.42857V0H0ZM20 0H21.4286V-1.42857H20V0ZM0 20H-1.42857V21.4286H0V20ZM20 20V21.4286H21.4286V20H20ZM20 13.1943H21.4286V9.99843L19.0472 12.1299L20 13.1943ZM20 6.80567L19.0472 7.87012L21.4286 10.0016V6.80567H20ZM0 1.42857H20V-1.42857H0V1.42857ZM1.42857 20V0H-1.42857V20H1.42857ZM20 18.5714H0V21.4286H20V18.5714ZM18.5714 13.1943V20H21.4286V13.1943H18.5714ZM19.0472 12.1299C18.5408 12.5832 17.8754 12.8571 17.1429 12.8571V15.7143C18.6055 15.7143 19.9428 15.1628 20.9528 14.2588L19.0472 12.1299ZM17.1429 12.8571C15.5651 12.8571 14.2857 11.5778 14.2857 10H11.4286C11.4286 13.1558 13.9871 15.7143 17.1429 15.7143V12.8571ZM14.2857 10C14.2857 8.42219 15.5651 7.14286 17.1429 7.14286V4.28571C13.9871 4.28571 11.4286 6.84424 11.4286 10H14.2857ZM17.1429 7.14286C17.8754 7.14286 18.5408 7.41679 19.0472 7.87012L20.9528 5.74121C19.9428 4.83719 18.6055 4.28571 17.1429 4.28571V7.14286ZM18.5714 0V6.80567H21.4286V0H18.5714Z" fill="#C93221" mask="url(#path-1-inside-1)"/>
</mask>
<g mask="url(#mask0)">
<path fill-rule="evenodd" clip-rule="evenodd" d="M9.99999 18.5714C5.26642 18.5714 1.42856 14.7336 1.42856 10C1.42856 5.26645 5.26642 1.42859 9.99999 1.42859C14.7336 1.42859 18.5714 5.26645 18.5714 10C18.5714 14.7336 14.7336 18.5714 9.99999 18.5714V18.5714Z" stroke="#264D59" stroke-width="1.42857" stroke-linecap="round" stroke-linejoin="round"/>
<path fill-rule="evenodd" clip-rule="evenodd" d="M7.14287 11.4286C6.35394 11.4286 5.71429 10.7889 5.71429 9.99998C5.71429 9.21105 6.35394 8.57141 7.14287 8.57141C7.93179 8.57141 8.57144 9.21105 8.57144 9.99998C8.57144 10.7889 7.93179 11.4286 7.14287 11.4286V11.4286Z" stroke="#264D59" stroke-width="1.42857" stroke-linecap="round" stroke-linejoin="round"/>
</g>
<path fill-rule="evenodd" clip-rule="evenodd" d="M11.1309 11.5868V12.5H14.7196V12.1033C14.7559 12.2404 14.8375 12.3585 14.9473 12.442C14.9759 12.4638 15.0065 12.4832 15.0386 12.5C15.1281 12.5467 15.2301 12.573 15.338 12.573C15.4404 12.573 15.5394 12.5467 15.6276 12.5C15.8242 12.3959 15.9676 12.1907 15.9768 11.9502C15.977 11.9448 15.9772 11.9393 15.9772 11.9338C15.9772 11.9282 15.977 11.9226 15.9768 11.917C15.9754 11.884 15.9714 11.8515 15.965 11.8199C15.9525 11.7587 15.9309 11.7006 15.9018 11.6469C15.8694 11.5873 15.8279 11.5331 15.7794 11.4864C15.6624 11.3736 15.5047 11.3038 15.338 11.3038C15.2836 11.3038 15.2307 11.3105 15.1801 11.3231C15.0674 11.3511 14.9664 11.4085 14.8864 11.4864C14.8539 11.518 14.8249 11.5529 14.7999 11.5907C14.7642 11.6447 14.7368 11.7045 14.7196 11.7682V11.4864H12.8933V11.459L13.3316 11.0937C13.3406 11.0863 13.3495 11.0788 13.3584 11.0714C13.4163 11.023 13.4718 10.9758 13.525 10.9298C13.5249 10.9299 13.5251 10.9297 13.525 10.9298C13.5274 10.9277 13.5301 10.9254 13.5324 10.9234C13.8786 10.6238 14.1267 10.375 14.3009 10.1534C14.3264 10.121 14.3504 10.0892 14.3728 10.0578C14.4721 9.91893 14.5419 9.79008 14.5887 9.66485C14.5909 9.65886 14.5931 9.65288 14.5952 9.6469C14.6354 9.53451 14.6572 9.4248 14.6654 9.3131C14.6681 9.27683 14.6694 9.24036 14.6694 9.20352C14.6694 8.33146 13.9548 7.76074 12.834 7.76074C12.504 7.76074 12.2091 7.81627 11.9583 7.92105C11.384 8.16099 11.0412 8.65918 11.0396 9.34014C11.0396 9.3433 11.0396 9.34646 11.0396 9.34962H12.245C12.245 9.34869 12.245 9.34776 12.245 9.34683C12.245 9.34405 12.245 9.34129 12.245 9.33854C12.245 9.32997 12.2452 9.32149 12.2455 9.3131C12.2579 8.9434 12.4934 8.73781 12.834 8.73781C13.146 8.73781 13.3779 8.91096 13.4238 9.20352C13.4292 9.23838 13.4321 9.27494 13.4321 9.3131C13.4321 9.32308 13.4319 9.33295 13.4315 9.34272C13.4205 9.62368 13.2518 9.82142 12.9774 10.0578C12.9504 10.0811 12.9223 10.1048 12.8933 10.1289C12.8873 10.1339 12.8812 10.139 12.875 10.1441L11.1309 11.5868ZM16.1471 10.3997L17.2611 10.6189C17.2668 10.6068 17.2729 10.5949 17.2794 10.5833C17.2879 10.568 17.297 10.5532 17.3068 10.5388C17.3196 10.52 17.3333 10.502 17.3481 10.4849C17.4118 10.4109 17.4932 10.3528 17.5854 10.3133C17.6339 10.2925 17.6854 10.2769 17.7389 10.2668C17.7854 10.2581 17.8333 10.2536 17.8821 10.2536C17.9324 10.2536 17.9807 10.2581 18.0268 10.2668C18.0619 10.2735 18.0958 10.2826 18.1281 10.294C18.1831 10.3135 18.2339 10.3397 18.2795 10.3722C18.2904 10.3799 18.301 10.388 18.3113 10.3964C18.3919 10.4624 18.4542 10.5494 18.4932 10.6536C18.4956 10.66 18.4979 10.6664 18.5001 10.6729C18.5225 10.739 18.5359 10.8115 18.5389 10.8897C18.539 10.8917 18.539 10.8937 18.5391 10.8957C18.5395 10.9068 18.5396 10.918 18.5395 10.9294C18.5398 10.9674 18.5376 11.0042 18.5332 11.0396C18.5262 11.0963 18.5134 11.1496 18.4954 11.199C18.4037 11.4515 18.1764 11.6051 17.8821 11.6051C17.632 11.6051 17.4149 11.491 17.3167 11.2987C17.3132 11.2919 17.3099 11.2851 17.3068 11.2781C17.2958 11.2538 17.2866 11.2284 17.2794 11.2018C17.2686 11.1621 17.2624 11.1199 17.2611 11.0755H16.0284C16.0285 11.0871 16.0287 11.0987 16.0291 11.1102C16.0311 11.1745 16.0373 11.2374 16.0475 11.2987C16.0582 11.3631 16.0733 11.4257 16.0926 11.4864C16.1083 11.536 16.1269 11.5844 16.1482 11.6313C16.189 11.7214 16.2396 11.8064 16.2992 11.8856C16.3103 11.9003 16.3217 11.9148 16.3334 11.9291C16.3359 11.9323 16.3385 11.9354 16.3411 11.9385C16.557 12.1982 16.8745 12.3903 17.2611 12.489C17.2818 12.4943 17.3027 12.4993 17.3238 12.5041C17.4977 12.5432 17.6847 12.5639 17.8821 12.5639C19.0043 12.5639 19.7433 11.8926 19.7628 10.9362C19.7629 10.9317 19.7629 10.9271 19.763 10.9225C19.7631 10.9127 19.7632 10.9028 19.7632 10.8928C19.7637 10.665 19.7233 10.4542 19.6487 10.2668C19.6022 10.1498 19.5424 10.042 19.471 9.94467C19.2939 9.70351 19.0455 9.52756 18.7516 9.43984C18.6139 9.39875 18.4663 9.37702 18.3113 9.37702C18.1569 9.37702 18.0121 9.39922 17.8821 9.43892C17.7942 9.46574 17.713 9.50055 17.6401 9.54189C17.5846 9.57333 17.5339 9.60855 17.4887 9.6469C17.4733 9.65996 17.4585 9.67339 17.4444 9.68715C17.4174 9.71354 17.3927 9.74118 17.3707 9.76988C17.346 9.80203 17.3246 9.83553 17.3068 9.87012H17.2794L17.3707 8.83826H19.471V7.82466H16.3297L16.1471 10.3997Z" fill="#264D59"/>
</svg>
