<svg width="20" height="20" viewBox="0 0 20 20" fill="none" xmlns="http://www.w3.org/2000/svg">
<path fill-rule="evenodd" clip-rule="evenodd" d="M16.4287 18.3571C17.6121 18.3571 18.5715 17.3977 18.5715 16.2143C18.5715 15.0308 17.6121 14.0714 16.4287 14.0714C15.2452 14.0714 14.2858 15.0308 14.2858 16.2143C14.2858 17.3977 15.2452 18.3571 16.4287 18.3571Z" stroke="#264D59" stroke-width="1.5" stroke-linecap="round" stroke-linejoin="round"/>
<path fill-rule="evenodd" clip-rule="evenodd" d="M3.5716 18.3571C4.75507 18.3571 5.71446 17.3977 5.71446 16.2143C5.71446 15.0308 4.75507 14.0714 3.5716 14.0714C2.38813 14.0714 1.42874 15.0308 1.42874 16.2143C1.42874 17.3977 2.38813 18.3571 3.5716 18.3571Z" stroke="#264D59" stroke-width="1.5" stroke-linecap="round" stroke-linejoin="round"/>
<path d="M4.99991 14.7857L7.14277 12.6428" stroke="#264D59" stroke-width="1.5" stroke-linecap="round" stroke-linejoin="round"/>
<path fill-rule="evenodd" clip-rule="evenodd" d="M10 14.0712C11.578 14.0712 12.8571 12.792 12.8571 11.2141C12.8571 9.63612 11.578 8.35693 10 8.35693C8.42204 8.35693 7.14285 9.63612 7.14285 11.2141C7.14285 12.792 8.42204 14.0712 10 14.0712Z" stroke="#264D59" stroke-width="1.5" stroke-linecap="round" stroke-linejoin="round"/>
<path fill-rule="evenodd" clip-rule="evenodd" d="M10.0004 5.85713C11.1839 5.85713 12.1433 4.89774 12.1433 3.71427C12.1433 2.5308 11.1839 1.57141 10.0004 1.57141C8.81696 1.57141 7.85757 2.5308 7.85757 3.71427C7.85757 4.89774 8.81696 5.85713 10.0004 5.85713Z" stroke="#264D59" stroke-width="1.5" stroke-linecap="round" stroke-linejoin="round"/>
<path d="M10.0001 5.5V7.64286" stroke="#264D59" stroke-width="1.5" stroke-linecap="round" stroke-linejoin="round"/>
<path d="M14.9999 14.7857L12.8571 12.6428" stroke="#264D59" stroke-width="1.5" stroke-linecap="round" stroke-linejoin="round"/>
</svg>
