<svg width="20" height="20" viewBox="0 0 20 20" fill="none" xmlns="http://www.w3.org/2000/svg">
<path d="M10.0031 12.5V9.375L8.12805 7.5" stroke="#264D59" stroke-width="1.5" stroke-linecap="round" stroke-linejoin="round"/>
<path d="M10.0031 9.375L11.8781 7.5" stroke="#264D59" stroke-width="1.5" stroke-linecap="round" stroke-linejoin="round"/>
<path d="M10.0031 18.125V16.875" stroke="#264D59" stroke-width="1.5" stroke-linecap="round" stroke-linejoin="round"/>
<path d="M12.5031 14.375C12.5031 15.038 12.2397 15.6739 11.7708 16.1428C11.302 16.6116 10.6661 16.875 10.0031 16.875C9.34001 16.875 8.70413 16.6116 8.23528 16.1428C7.76644 15.6739 7.50305 15.038 7.50305 14.375V12.5H12.5031V14.375Z" stroke="#264D59" stroke-width="1.5" stroke-linecap="round" stroke-linejoin="round"/>
<path d="M10.0028 1.875C8.73362 1.87455 7.50154 2.30329 6.50679 3.09157C5.51203 3.87985 4.81306 4.98134 4.52344 6.21707C4.23381 7.4528 4.37055 8.75016 4.91145 9.89835C5.45234 11.0465 6.3656 11.9781 7.50284 12.5417V12.5017H12.5028V12.5417C13.6401 11.9781 14.5533 11.0465 15.0942 9.89835C15.6351 8.75016 15.7719 7.4528 15.4822 6.21707C15.1926 4.98134 14.4936 3.87985 13.4989 3.09157C12.5041 2.30329 11.2721 1.87455 10.0028 1.875V1.875Z" stroke="#264D59" stroke-width="1.5" stroke-linecap="round" stroke-linejoin="round"/>
</svg>
